<svg width="162" height="50" viewBox="0 0 162 50" fill="none" xmlns="http://www.w3.org/2000/svg">
<path d="M21.1744 36.7273H31.5987V31.5151H21.1744V36.7273ZM21.1744 26.303H39.4169V21.0908H21.1744V26.303ZM13.3562 15.8787H39.4169V10.6665H13.3562V15.8787ZM12.3789 49.7577C8.94754 49.7577 6.02656 48.5524 3.61593 46.1418C1.20531 43.7311 0 40.8102 0 37.3788C0 34.903 0.640661 32.6879 1.92198 30.7333C3.20331 28.7788 4.8864 27.302 6.97126 26.303H0.32576V21.0908H15.9622V36.7273H10.7501V30.4076C9.14299 30.755 7.81824 31.5803 6.77581 32.8833C5.73337 34.1864 5.21216 35.6849 5.21216 37.3788C5.21216 39.3768 5.91797 41.0708 7.3296 42.4607C8.74122 43.8506 10.4243 44.5455 12.3789 44.5455V49.7577ZM21.1744 47.1516V41.9395H44.6291V5.45435H8.144V15.8787H2.93184V5.45435C2.93184 4.021 3.4422 2.79397 4.46291 1.77326C5.48362 0.752545 6.71065 0.242188 8.144 0.242188H44.6291C46.0624 0.242188 47.2895 0.752545 48.3102 1.77326C49.3309 2.79397 49.8413 4.021 49.8413 5.45435V41.9395C49.8413 43.3728 49.3309 44.5998 48.3102 45.6205C47.2895 46.6413 46.0624 47.1516 44.6291 47.1516H21.1744Z" fill="#8B3CE0"/>
<path d="M70.8492 33.884C69.8359 33.884 68.8599 33.7667 67.9212 33.532C66.9826 33.2973 66.1399 32.9507 65.3932 32.492C64.6572 32.0333 64.0706 31.4627 63.6332 30.78C63.2066 30.0867 62.9932 29.2813 62.9932 28.364C62.9932 28.3213 62.9932 28.2733 62.9932 28.22C62.9932 28.156 62.9932 28.108 62.9932 28.076H67.9212C67.9212 28.108 67.9212 28.1453 67.9212 28.188C67.9212 28.22 67.9212 28.2573 67.9212 28.3C67.9212 28.9187 68.1932 29.372 68.7372 29.66C69.2919 29.948 70.0386 30.092 70.9772 30.092C71.4679 30.092 71.9372 30.044 72.3852 29.948C72.8439 29.8413 73.2172 29.676 73.5052 29.452C73.8039 29.2173 73.9532 28.924 73.9532 28.572C73.9532 28.0067 73.6386 27.6067 73.0092 27.372C72.3906 27.1373 71.3932 26.9027 70.0172 26.668C69.2386 26.54 68.4492 26.3587 67.6492 26.124C66.8492 25.8893 66.1132 25.58 65.4412 25.196C64.7692 24.8013 64.2306 24.3053 63.8252 23.708C63.4199 23.1 63.2172 22.364 63.2172 21.5C63.2172 20.348 63.5639 19.3773 64.2572 18.588C64.9612 17.7987 65.8946 17.2013 67.0572 16.796C68.2199 16.3907 69.4999 16.188 70.8972 16.188C72.2306 16.188 73.4732 16.412 74.6252 16.86C75.7772 17.2973 76.7106 17.932 77.4252 18.764C78.1399 19.5853 78.4972 20.5773 78.4972 21.74C78.4972 21.7613 78.4972 21.7933 78.4972 21.836C78.4972 21.8787 78.4972 21.9213 78.4972 21.964H73.6172C73.6172 21.9213 73.6172 21.884 73.6172 21.852C73.6172 21.82 73.6172 21.7933 73.6172 21.772C73.6172 21.3453 73.4786 20.9987 73.2012 20.732C72.9346 20.4653 72.5932 20.268 72.1772 20.14C71.7612 20.0013 71.3292 19.932 70.8812 19.932C70.4759 19.932 70.0546 19.98 69.6172 20.076C69.1906 20.1613 68.8279 20.3107 68.5292 20.524C68.2306 20.7267 68.0812 21.0147 68.0812 21.388C68.0812 21.7507 68.2412 22.0493 68.5612 22.284C68.8812 22.508 69.3292 22.6947 69.9052 22.844C70.4812 22.9827 71.1479 23.116 71.9052 23.244C72.6199 23.3613 73.3719 23.5267 74.1612 23.74C74.9612 23.9427 75.7079 24.236 76.4012 24.62C77.1052 24.9933 77.6706 25.4893 78.0972 26.108C78.5346 26.716 78.7532 27.4893 78.7532 28.428C78.7532 29.3987 78.5292 30.2307 78.0812 30.924C77.6332 31.6173 77.0252 32.1827 76.2572 32.62C75.4999 33.0467 74.6519 33.3613 73.7132 33.564C72.7852 33.7773 71.8306 33.884 70.8492 33.884ZM81.6477 33.5V16.508H86.5597V33.5H81.6477ZM84.0957 13.74C83.3277 13.74 82.6557 13.5373 82.0797 13.132C81.5144 12.7267 81.2317 12.156 81.2317 11.42C81.2317 10.6733 81.5144 10.0973 82.0797 9.692C82.6557 9.28667 83.3277 9.084 84.0957 9.084C84.8744 9.084 85.5464 9.28667 86.1117 9.692C86.6877 10.0973 86.9757 10.6733 86.9757 11.42C86.9757 12.1667 86.6877 12.7427 86.1117 13.148C85.5464 13.5427 84.8744 13.74 84.0957 13.74ZM98.5667 33.852C97.9161 33.852 97.2441 33.7933 96.5507 33.676C95.8681 33.5693 95.2281 33.3507 94.6307 33.02C94.0441 32.6787 93.5694 32.1827 93.2067 31.532C92.8441 30.8813 92.6627 30.0227 92.6627 28.956C92.6627 28.7213 92.6627 28.4813 92.6627 28.236C92.6627 27.9907 92.6627 27.7453 92.6627 27.5V20.348H88.7427V16.508H89.8467C90.4867 16.508 90.9934 16.4813 91.3667 16.428C91.7507 16.3747 92.0334 16.2413 92.2147 16.028C92.4067 15.804 92.5294 15.4573 92.5827 14.988C92.6361 14.5187 92.6627 13.8733 92.6627 13.052V10.908H97.6387V16.508H102.583V20.348H97.6387V26.46C97.6387 26.652 97.6387 26.8387 97.6387 27.02C97.6387 27.2013 97.6387 27.3773 97.6387 27.548C97.6387 28.284 97.7241 28.8813 97.8947 29.34C98.0761 29.7987 98.5187 30.028 99.2227 30.028C99.5747 30.028 99.9054 29.996 100.215 29.932C100.535 29.868 100.775 29.804 100.935 29.74V33.468C100.711 33.564 100.396 33.6493 99.9907 33.724C99.5854 33.8093 99.1107 33.852 98.5667 33.852ZM111.622 33.82C110.416 33.82 109.424 33.628 108.646 33.244C107.867 32.8493 107.254 32.3213 106.806 31.66C106.358 30.9987 106.043 30.2627 105.862 29.452C105.68 28.6413 105.59 27.82 105.59 26.988C105.59 26.604 105.59 26.1987 105.59 25.772C105.59 25.3453 105.59 24.908 105.59 24.46V16.508H110.55V23.676C110.55 24.0387 110.55 24.3907 110.55 24.732C110.55 25.0733 110.55 25.388 110.55 25.676C110.55 26.3907 110.63 27.0467 110.79 27.644C110.95 28.2413 111.243 28.7213 111.67 29.084C112.107 29.4467 112.726 29.628 113.526 29.628C114.304 29.628 114.966 29.4093 115.51 28.972C116.054 28.524 116.47 27.9533 116.758 27.26C117.046 26.5667 117.19 25.852 117.19 25.116L118.582 26.252C118.582 27.3187 118.416 28.3107 118.086 29.228C117.766 30.1453 117.307 30.9507 116.71 31.644C116.112 32.3267 115.382 32.86 114.518 33.244C113.664 33.628 112.699 33.82 111.622 33.82ZM117.19 33.5V16.508H122.15V33.5H117.19ZM128.607 33.98C127.871 33.98 127.247 33.724 126.735 33.212C126.223 32.7 125.967 32.076 125.967 31.34C125.967 30.6147 126.223 29.996 126.735 29.484C127.247 28.972 127.871 28.716 128.607 28.716C129.332 28.716 129.951 28.972 130.463 29.484C130.975 29.996 131.231 30.6147 131.231 31.34C131.231 32.076 130.975 32.7 130.463 33.212C129.951 33.724 129.332 33.98 128.607 33.98Z" fill="white"/>
<path d="M140.943 33.852C139.706 33.852 138.602 33.6547 137.631 33.26C136.671 32.8653 135.919 32.2947 135.375 31.548C134.831 30.8013 134.559 29.8947 134.559 28.828C134.559 27.6227 134.89 26.6413 135.551 25.884C136.213 25.1267 137.087 24.5507 138.175 24.156C139.274 23.7507 140.463 23.484 141.743 23.356C143.61 23.1747 144.895 23.0093 145.599 22.86C146.314 22.7107 146.671 22.4493 146.671 22.076C146.671 22.0653 146.671 22.0547 146.671 22.044C146.671 21.4147 146.367 20.9187 145.759 20.556C145.162 20.1933 144.325 20.012 143.247 20.012C142.106 20.012 141.231 20.22 140.623 20.636C140.026 21.0413 139.727 21.6653 139.727 22.508H134.847C134.847 21.1427 135.215 19.9907 135.951 19.052C136.698 18.1133 137.706 17.404 138.975 16.924C140.245 16.4333 141.679 16.188 143.279 16.188C144.773 16.188 146.154 16.4173 147.423 16.876C148.693 17.324 149.711 18.0013 150.479 18.908C151.258 19.8147 151.647 20.9667 151.647 22.364C151.647 22.588 151.647 22.812 151.647 23.036C151.647 23.2493 151.647 23.468 151.647 23.692V29.708C151.647 30.1453 151.658 30.5667 151.679 30.972C151.711 31.3667 151.775 31.7293 151.871 32.06C151.978 32.4333 152.111 32.7427 152.271 32.988C152.431 33.2333 152.565 33.404 152.671 33.5H147.791C147.717 33.4253 147.599 33.2707 147.439 33.036C147.29 32.8013 147.162 32.5293 147.055 32.22C146.927 31.8467 146.831 31.4733 146.767 31.1C146.714 30.716 146.687 30.268 146.687 29.756L147.711 30.46C147.413 31.164 146.927 31.772 146.255 32.284C145.594 32.7853 144.805 33.1747 143.887 33.452C142.981 33.7187 141.999 33.852 140.943 33.852ZM142.271 30.14C143.05 30.14 143.775 30.0013 144.447 29.724C145.13 29.436 145.685 28.988 146.111 28.38C146.538 27.772 146.751 26.9773 146.751 25.996V24.284L147.983 25.484C147.279 25.74 146.463 25.9533 145.535 26.124C144.618 26.284 143.701 26.412 142.783 26.508C141.695 26.6147 140.879 26.8013 140.335 27.068C139.802 27.324 139.535 27.7613 139.535 28.38C139.535 28.9667 139.765 29.4093 140.223 29.708C140.682 29.996 141.365 30.14 142.271 30.14ZM155.085 33.5V16.508H159.997V33.5H155.085ZM157.533 13.74C156.765 13.74 156.093 13.5373 155.517 13.132C154.952 12.7267 154.669 12.156 154.669 11.42C154.669 10.6733 154.952 10.0973 155.517 9.692C156.093 9.28667 156.765 9.084 157.533 9.084C158.312 9.084 158.984 9.28667 159.549 9.692C160.125 10.0973 160.413 10.6733 160.413 11.42C160.413 12.1667 160.125 12.7427 159.549 13.148C158.984 13.5427 158.312 13.74 157.533 13.74Z" fill="#8B3CE0"/>
</svg>
